<?xml version="1.0" standalone="no"?>
<!DOCTYPE svg PUBLIC "-//W3C//DTD SVG 20010904//EN"
 "http://www.w3.org/TR/2001/REC-SVG-20010904/DTD/svg10.dtd">
<svg version="1.0" xmlns="http://www.w3.org/2000/svg"
 width="260.000000pt" height="260.000000pt" viewBox="0 0 260.000000 260.000000"
 preserveAspectRatio="xMidYMid meet">
<metadata>
Created by potrace 1.14, written by Peter Selinger 2001-2017
</metadata>
<g transform="translate(0.000000,260.000000) scale(0.100000,-0.100000)"
fill="#000000" stroke="none">
<path d="M306 2588 c3 -4 0 -8 -5 -8 -7 0 -11 -321 -11 -1024 0 -942 1 -1024
16 -1030 15 -6 15 -4 3 11 -12 15 -12 16 1 8 8 -5 21 -17 29 -28 12 -17 15
-17 30 -3 15 14 18 14 18 1 0 -8 -4 -12 -9 -9 -4 3 -8 0 -8 -6 0 -7 8 -9 21
-5 16 5 19 4 14 -5 -6 -9 -4 -11 6 -4 27 17 37 13 33 -15 -4 -21 -2 -23 7 -11
8 11 12 12 16 3 2 -7 9 -13 14 -13 6 0 7 5 3 12 -4 7 -3 8 4 4 6 -4 8 -14 5
-24 -6 -15 -5 -16 12 -2 11 9 16 10 11 3 -4 -8 -2 -13 8 -13 8 0 17 6 20 13 3
6 3 -1 1 -16 -3 -22 -1 -26 9 -18 9 7 16 7 24 -1 7 -7 12 -9 12 -4 0 4 13 -2
30 -14 17 -12 30 -29 30 -38 0 -15 2 -15 10 -2 8 12 10 12 10 1 0 -11 3 -11
16 -1 13 11 16 10 21 -9 4 -16 11 -21 24 -18 10 3 20 -1 23 -9 3 -9 -1 -11
-12 -8 -14 5 -15 4 -2 -4 10 -8 19 -7 29 1 12 10 13 9 6 -2 -6 -11 -3 -13 13
-9 22 6 27 -1 22 -32 -1 -9 6 -5 17 9 15 18 20 20 20 8 0 -9 -5 -13 -11 -10
-6 3 -8 2 -3 -2 12 -14 49 -17 41 -3 -4 7 -3 8 5 4 9 -6 9 -11 1 -21 -8 -10
-8 -15 1 -21 7 -4 9 -3 6 3 -4 6 0 14 9 17 12 4 15 2 11 -9 -4 -8 -1 -17 5
-21 7 -4 8 -3 4 4 -4 7 -2 12 3 12 6 0 11 -5 11 -11 0 -20 33 -39 47 -27 10 8
13 6 13 -8 0 -14 2 -16 9 -6 6 10 10 9 14 -7 3 -14 10 -19 21 -15 9 3 13 11 9
17 -3 6 -1 7 6 3 6 -4 9 -12 6 -17 -5 -8 24 -14 48 -10 5 1 6 -3 2 -8 -3 -6
-13 -8 -23 -5 -13 5 -14 4 -3 -4 7 -5 22 -7 32 -5 11 3 19 0 19 -6 0 -7 -4 -9
-10 -6 -6 4 -7 -1 -3 -11 4 -11 8 -13 11 -6 4 14 42 16 42 3 0 -5 -3 -11 -7
-14 -5 -2 -3 -3 3 -1 6 1 18 -3 25 -9 10 -10 10 -8 0 6 -12 15 -12 17 3 11 12
-5 16 -14 12 -28 -5 -20 -5 -21 9 -2 12 16 15 17 15 4 0 -8 8 -22 18 -29 15
-13 16 -12 4 3 -11 14 -11 16 7 11 12 -3 19 -9 16 -13 -3 -4 2 -10 10 -14 8
-3 19 3 24 12 8 12 10 13 11 3 0 -11 4 -11 18 2 10 10 23 17 28 17 5 0 3 -4
-4 -9 -11 -7 -11 -9 2 -14 14 -6 21 8 17 35 0 4 10 3 23 -2 25 -9 54 9 42 28
-3 5 1 9 9 9 8 0 11 -5 8 -11 -4 -6 0 -5 9 1 8 7 19 9 24 5 4 -4 2 2 -6 12
-14 18 -14 19 7 8 18 -10 24 -9 32 5 9 16 12 16 22 3 9 -12 10 -11 6 8 -3 12
-1 19 4 16 6 -3 17 0 26 8 12 9 15 9 9 0 -4 -6 -2 -12 3 -12 6 0 11 6 11 14 0
8 5 18 12 22 7 5 8 3 3 -6 -5 -8 -3 -11 6 -8 8 3 14 10 14 16 0 5 4 14 9 19 5
5 6 2 1 -6 -5 -9 -3 -12 6 -9 8 3 13 12 11 19 -1 10 2 9 11 -3 12 -15 14 -15
25 3 7 11 18 17 24 13 7 -5 8 -3 4 5 -6 9 -13 8 -27 -5 -10 -9 -19 -13 -19 -8
0 5 12 18 27 28 14 11 23 15 20 9 -4 -6 0 -13 8 -16 10 -4 12 -1 8 11 -6 15
-5 16 12 2 17 -14 18 -14 5 10 -12 23 -12 24 3 11 15 -12 17 -11 17 3 0 10 5
14 10 11 6 -4 7 -11 4 -17 -5 -7 -2 -8 5 -4 7 5 10 14 7 22 -5 14 19 19 69 16
18 -2 19 -1 2 9 -23 14 -13 29 15 21 18 -4 20 -2 15 14 -7 18 -6 18 7 2 15
-20 31 -25 20 -6 -5 8 0 9 17 5 23 -6 24 -6 4 10 -20 15 -19 15 4 8 15 -5 21
-3 17 3 -7 12 29 26 44 17 6 -3 7 1 4 9 -7 18 7 21 22 6 7 -7 11 -6 11 4 0 8
-5 12 -11 9 -8 -4 -8 -2 -1 5 6 6 25 12 42 14 27 2 30 5 20 17 -10 12 -9 13
11 2 22 -12 23 -11 17 11 l-7 23 22 -25 c21 -23 22 -24 16 -3 -4 12 -2 24 5
29 8 4 9 3 5 -4 -4 -7 -1 -12 9 -12 10 0 13 5 9 12 -5 8 -2 9 11 4 15 -5 16
-4 5 9 -12 14 -10 15 13 11 25 -4 26 -3 16 16 -8 14 -8 18 0 14 6 -4 20 -2 32
5 17 9 23 8 30 -2 5 -8 8 446 8 1008 0 749 -3 1024 -11 1029 -6 4 -8 3 -4 -4
3 -6 1 -14 -6 -18 -7 -4 -10 -4 -6 1 16 17 -13 45 -43 43 -17 -1 -32 -6 -35
-9 -2 -4 10 -6 28 -4 24 3 29 2 18 -5 -8 -5 -23 -10 -32 -10 -10 0 -18 -4 -18
-8 0 -5 -7 -9 -15 -9 -12 0 -12 3 -2 16 10 14 10 14 -5 3 -9 -8 -22 -11 -28
-7 -5 3 -10 2 -10 -4 0 -5 3 -11 8 -14 4 -2 2 -2 -5 -1 -6 2 -14 0 -16 -4 -2
-4 -2 -2 -1 5 2 7 -2 15 -8 19 -6 4 -8 3 -5 -2 3 -6 2 -16 -4 -24 -6 -11 -9
-12 -9 -2 0 7 -5 10 -10 7 -6 -4 -7 -11 -4 -17 5 -7 2 -8 -5 -4 -7 5 -10 15
-7 23 3 8 1 11 -4 8 -6 -3 -10 -13 -10 -20 0 -8 -6 -12 -14 -9 -8 3 -17 1 -21
-5 -8 -14 -25 -14 -25 0 0 5 5 7 12 3 7 -4 8 -3 4 5 -5 8 -12 9 -19 3 -7 -5
-20 -8 -30 -7 -10 2 -14 -1 -11 -7 4 -7 -6 -9 -29 -6 -29 3 -34 1 -25 -9 8
-11 7 -12 -6 -7 -9 4 -16 2 -14 -4 2 -5 -1 -10 -7 -11 -5 -1 -10 3 -10 8 0 5
-4 13 -9 18 -5 4 -7 4 -3 -2 3 -6 -6 -15 -19 -22 -24 -11 -31 -6 -16 13 4 5
-1 1 -10 -9 -13 -14 -18 -15 -18 -6 0 10 -3 10 -8 3 -6 -10 -16 -12 -54 -15
-7 0 -25 2 -40 5 -16 4 -30 1 -34 -5 -4 -8 -3 -9 4 -5 7 4 20 3 29 -3 14 -8 9
-9 -21 -6 -46 6 -59 13 -50 27 4 7 2 8 -5 4 -7 -5 -9 -17 -5 -29 5 -20 5 -20
-7 -6 -19 23 -50 32 -42 14 3 -8 9 -12 14 -9 5 3 6 -2 2 -12 -5 -15 -7 -15
-15 0 -5 9 -14 13 -20 10 -7 -5 -9 -2 -6 7 4 9 -2 14 -17 14 -14 0 -21 -5 -18
-12 3 -7 10 -10 17 -6 6 4 5 -1 -3 -10 -16 -20 -22 -22 -18 -4 1 7 -6 11 -17
9 -13 -2 -16 1 -10 10 6 11 5 11 -8 0 -9 -7 -29 -11 -46 -10 -16 1 -38 -4 -49
-12 -15 -12 -16 -12 -5 0 21 24 13 31 -15 13 -27 -17 -28 -17 -13 2 14 17 13
18 -3 12 -10 -4 -23 -7 -28 -7 -4 0 -6 -8 -3 -17 5 -15 4 -15 -4 -4 -15 21
-42 22 -43 3 0 -12 -3 -9 -10 7 -7 18 -12 21 -23 12 -11 -9 -16 -9 -22 0 -5 8
-3 9 6 4 9 -5 11 -4 6 4 -4 6 -12 9 -17 5 -5 -3 -7 -9 -4 -14 3 -4 -1 -13 -9
-19 -10 -9 -16 -8 -26 4 -9 10 -9 15 -1 15 6 0 11 -5 11 -11 0 -5 5 -7 11 -3
7 4 7 10 1 16 -12 12 -55 1 -47 -12 3 -5 0 -12 -6 -16 -7 -4 -9 -3 -6 3 9 15
-17 35 -36 27 -10 -3 -13 -12 -9 -22 5 -14 4 -15 -10 -2 -9 8 -13 20 -10 25 3
6 -1 5 -9 -1 -20 -16 -61 -25 -52 -11 4 6 0 8 -10 4 -10 -3 -17 -2 -17 4 0 6
-7 3 -16 -5 -20 -20 -30 -21 -14 -1 15 18 -1 20 -18 3 -7 -7 -12 -9 -12 -5 0
4 -10 3 -21 -4 -17 -9 -20 -8 -14 2 6 9 3 11 -8 6 -13 -5 -17 -1 -18 16 l0 22
-10 -23 c-5 -13 -13 -21 -18 -17 -6 3 -8 11 -5 19 3 7 -2 13 -10 13 -8 0 -13
-4 -10 -9 3 -4 1 -8 -4 -8 -6 0 -12 6 -15 14 -4 9 -14 12 -28 9 -15 -4 -20 -3
-15 5 5 9 0 9 -18 2 -22 -8 -26 -7 -26 8 0 15 -2 15 -10 2 -5 -8 -10 -10 -10
-3 0 6 -8 9 -19 6 -13 -3 -21 1 -24 14 -4 17 -5 17 -6 -1 -1 -20 -1 -20 -17 0
-15 19 -16 19 -9 0 6 -20 6 -20 -16 0 -12 10 -19 13 -15 7 5 -9 2 -11 -8 -7
-9 3 -13 10 -10 15 3 5 0 9 -6 9 -6 0 -8 5 -4 12 4 7 3 8 -5 4 -6 -4 -9 -11
-6 -16 3 -5 0 -12 -6 -16 -8 -4 -9 -3 -5 4 4 7 2 12 -4 12 -6 0 -9 4 -6 8 3 5
-1 9 -8 9 -9 0 -12 -7 -8 -16 5 -13 3 -14 -10 -4 -8 7 -18 10 -21 6 -4 -3 -7
-1 -7 6 0 9 -5 9 -22 0 -21 -11 -22 -11 -9 5 14 17 9 31 -12 31 -7 1 -15 -4
-19 -10 -5 -6 -8 -5 -8 3 0 9 -13 12 -39 10 -22 -1 -38 -5 -35 -10z m17 -13
c-3 -9 -8 -14 -10 -11 -3 3 -2 9 2 15 9 16 15 13 8 -4z m447 -95 c0 -5 -5 -10
-11 -10 -5 0 -7 5 -4 10 3 6 8 10 11 10 2 0 4 -4 4 -10z m340 -30 c0 -5 -2
-10 -4 -10 -3 0 -8 5 -11 10 -3 6 -1 10 4 10 6 0 11 -4 11 -10z m-140 -2248
c0 -12 -3 -12 -15 -2 -8 7 -15 13 -15 15 0 1 7 2 15 2 8 0 15 -7 15 -15z m470
-118 c0 -8 -19 -13 -24 -6 -3 5 1 9 9 9 8 0 15 -2 15 -3z"/>
<path d="M456 2578 c3 -5 10 -6 15 -3 13 9 11 12 -6 12 -8 0 -12 -4 -9 -9z"/>
<path d="M1726 2478 c3 -5 10 -6 15 -3 13 9 11 12 -6 12 -8 0 -12 -4 -9 -9z"/>
<path d="M885 2470 c-3 -6 1 -7 9 -4 18 7 21 14 7 14 -6 0 -13 -4 -16 -10z"/>
<path d="M1256 2471 c-3 -4 6 -7 19 -7 14 0 22 2 19 5 -8 8 -34 10 -38 2z"/>
<path d="M421 474 c0 -11 3 -14 6 -6 3 7 2 16 -1 19 -3 4 -6 -2 -5 -13z"/>
<path d="M590 392 c0 -5 11 -14 25 -20 14 -6 25 -10 25 -8 0 2 -11 11 -25 20
-14 9 -25 13 -25 8z"/>
<path d="M687 335 c-4 -8 -3 -16 1 -19 4 -3 9 4 9 15 2 23 -3 25 -10 4z"/>
<path d="M1335 31 c-3 -5 -1 -12 5 -16 5 -3 10 1 10 9 0 18 -6 21 -15 7z"/>
<path d="M1310 21 c0 -6 4 -13 10 -16 6 -3 7 1 4 9 -7 18 -14 21 -14 7z"/>
</g>
</svg>
